<svg xmlns="http://www.w3.org/2000/svg" xml:space="preserve" width="2048" height="2048" style="shape-rendering:geometricPrecision;text-rendering:geometricPrecision;image-rendering:optimizeQuality;fill-rule:evenodd;clip-rule:evenodd"><defs><clipPath id="id0"><path d="M1024-.001c565.539 0 1024 458.462 1024 1024 0 565.539-458.462 1024-1024 1024-565.539 0-1024-458.462-1024-1024 0-565.54 458.462-1024 1024-1024z"/></clipPath><style>.fil19{fill:#253035}.fil12{fill:#37474f}.fil1{fill:#80cbc4}.fil10,.fil8,.fil9{fill:#7cb342;fill-rule:nonzero}.fil8,.fil9{fill:#ef5350}.fil9{fill:#ffab40}</style></defs><g id="Layer_x0020_1"><path d="M1024-.001c565.539 0 1024 458.462 1024 1024 0 565.539-458.462 1024-1024 1024-565.539 0-1024-458.462-1024-1024 0-565.54 458.462-1024 1024-1024z" style="fill:#b2dfdb"/><g style="clip-path:url(#id0)"><g id="_289348640"><path id="_2909739601" class="fil1" d="M1578.71 585.872 2714.59 1721.75l1.34 1.79 1.16 1.91.97 2.02.78 2.13.57 2.22.35 2.3.12 2.37L1584 600.608l-.12-2.369-.35-2.3-.57-2.22-.78-2.128-.97-2.026-1.17-1.909z"/><path id="_290973600" class="fil1" d="M1584 600.608 2719.88 1736.49v512.38L1584 1112.99z"/><path id="_290974824" class="fil1" d="m1584 1112.99 1135.88 1135.88v153.86L1584 1266.85z"/><path id="_290974464" class="fil1" d="m1584 1266.85 1135.88 1135.88-.12 2.37-.35 2.3-.57 2.22-.78 2.13-.97 2.02-1.16 1.91-1.34 1.78-1.49 1.65-1.65 1.5-1.78 1.33-1.91 1.16-2.03.98-2.13.77-2.21.57-2.31.36-2.36.12-1135.88-1135.89 2.36-.12 2.3-.35 2.22-.57 2.13-.78 2.03-.97 1.91-1.16 1.78-1.34 1.65-1.49 1.49-1.65 1.33-1.78 1.17-1.91.97-2.03.78-2.12.57-2.22.35-2.3z"/><path id="_290974560" class="fil1" d="M1560.84 1290.01 2696.72 2425.9h-477.3L1083.54 1290.01z"/><path id="_290974248" class="fil1" d="M1083.54 1290.01 2219.42 2425.9v107.49L1083.54 1397.5z"/><path id="_290974368" class="fil1" d="M1251.11 1426.2 2387 2562.09l1.54 1.74 1.11 1.79.68 1.84.23 1.89-1135.88-1135.88-.23-1.89-.68-1.84-1.11-1.79z"/><path id="_290974536" class="fil1" d="M964.459 1290.01 2100.34 2425.9h-477.29L487.165 1290.01z"/><path id="_290974632" class="fil1" d="m1254.68 1433.47 1135.88 1135.88-1.33 4.49-3.85 4.2-6.23 3.92-8.41 3.62-10.45 3.33-12.31 3.04-13.99 2.76-15.52 2.46-16.86 2.17-18.05 1.88-19.07 1.6-19.91 1.3-20.58 1.02-21.09.72-21.43.43-21.6.15-21.6-.15-21.42-.43-21.1-.72-20.58-1.02-19.91-1.3-19.06-1.6-18.05-1.88-16.87-2.17-15.51-2.46-14-2.76-12.3-3.04-10.45-3.33-8.42-3.62-6.22-3.92L798.506 1442.16l6.223 3.91 8.419 3.63 10.447 3.33 12.306 3.04 13.995 2.75 15.515 2.47 16.867 2.17 18.05 1.88 19.063 1.59 19.909 1.31 20.584 1.01 21.091.73 21.425.43 21.6.15 21.6-.15 21.43-.43 21.09-.73 20.58-1.01 19.91-1.31 19.06-1.59 18.05-1.88 16.87-2.17 15.52-2.47 13.99-2.75 12.31-3.04 10.44-3.33 8.42-3.63 6.23-3.91 3.85-4.2z"/><path id="_290975664" class="fil1" d="M487.165 1290.01 1623.05 2425.9l-2.37-.12-2.3-.36-2.22-.57-2.13-.77-2.03-.98-1.91-1.16-1.78-1.33L472.429 1284.72l1.784 1.34 1.91 1.16 2.025.97 2.129.78 2.22.57 2.3.35z"/><path id="_289348688" class="fil1" d="M487.165 577.441h1073.67c12.794 0 23.166 10.372 23.166 23.166v666.24c0 12.793-10.372 23.165-23.166 23.165h-477.293v107.49c92.41 3.55 171.136 15.54 171.136 35.967 0 49.45-461.353 49.45-461.353 0 0-20.427 78.725-32.416 171.135-35.967v-107.49H487.166c-12.793 0-23.166-10.372-23.166-23.165v-666.24c0-12.794 10.373-23.166 23.166-23.166z"/></g></g><path d="M1024-.001c565.539 0 1024 458.462 1024 1024 0 565.539-458.462 1024-1024 1024-565.539 0-1024-458.462-1024-1024 0-565.54 458.462-1024 1024-1024z" style="fill:none"/><path d="M793.325 1433.47c0 49.45 461.353 49.45 461.353 0s-461.353-49.45-461.353 0z" style="fill:#263238;fill-rule:nonzero"/><path d="M1083.54 1266.85c0-12.794-26.659-23.166-59.542-23.166-32.882 0-59.54 10.372-59.54 23.166v157.018c0 12.794 26.658 23.165 59.54 23.165 32.883 0 59.542-10.371 59.542-23.165V1266.85z" style="fill:#37474f;fill-rule:nonzero"/><path d="M487.165 577.441h1073.67c12.794 0 23.166 10.372 23.166 23.166v666.24c0 12.793-10.372 23.165-23.166 23.165H487.165c-12.794 0-23.165-10.372-23.165-23.166V600.607c0-12.794 10.371-23.166 23.165-23.166z" style="fill:#78909c"/><path d="M1584 1112.99v153.854c0 12.794-10.372 23.166-23.166 23.166H487.164c-12.794 0-23.165-10.372-23.165-23.166V1112.99h1120z" style="fill:#546e7a"/><path style="fill:#80deea" d="M1537.67 623.774H510.331v471.856H1537.67z"/><path class="fil8" d="M1508.3 1186.82v29.37h29.37v-29.37z"/><path class="fil9" d="M1405.45 1216.19h29.36v-29.37h-29.36z"/><path class="fil10" d="M1456.8 1186.82v29.37h29.37v-29.37z"/><circle cx="1024" cy="1201.5" style="fill:#00b8d4" r="28.32"/><circle class="fil12" cx="1024" cy="1201.5" r="24.088"/><path d="M1117.39 741.52v188.345a6.988 6.988 0 0 1-6.987 6.989H788.962a6.988 6.988 0 0 1-6.989-6.989V741.52h335.417z" style="fill:#555a61"/><path style="fill:#494f56" d="M1117.39 741.52v13.975H781.972V741.52z"/><path d="M788.96 671.64h321.441a6.988 6.988 0 0 1 6.987 6.989v62.89H781.971v-62.89a6.988 6.988 0 0 1 6.989-6.989z" style="fill:#2a3541;fill-rule:nonzero"/><path style="fill:#873636;fill-rule:nonzero" d="M1061.52 692.247v27.952h27.95v-27.952z"/><path style="fill:#8e652d;fill-rule:nonzero" d="M963.622 720.199h27.951v-27.952h-27.951z"/><path style="fill:#49692e;fill-rule:nonzero" d="M1012.5 692.247v27.952h27.95v-27.952z"/><path class="fil19" d="M994.862 877.774v-10.082h73.448v10.082zM919.477 863.846l47.345-24.778-47.345-24.566V800.6l59.785 31.862v13.052l-59.785 32.26zM890.839 877.774l-59.785-32.26v-13.052l59.785-31.862v13.902l-47.407 24.566 47.407 24.778z"/><path d="M1184.47 793.757v188.346a6.989 6.989 0 0 1-6.989 6.987h-321.44a6.988 6.988 0 0 1-6.99-6.987V793.757h335.419z" style="fill:#989faa"/><path style="fill:#7b838e" d="M1184.47 793.757v13.975H849.055v-13.975z"/><path d="M856.044 723.877h321.441a6.99 6.99 0 0 1 6.989 6.989v62.891H849.056v-62.891a6.99 6.99 0 0 1 6.988-6.989z" style="fill:#526072;fill-rule:nonzero"/><path class="fil8" d="M1128.6 744.485v27.951h27.95v-27.951z"/><path class="fil9" d="M1030.71 772.436h27.95v-27.951h-27.95z"/><path class="fil10" d="M1079.58 744.485v27.951h27.95v-27.951z"/><path class="fil12" d="M1061.95 930.01v-10.081h73.44v10.081zM986.56 916.083l47.34-24.779-47.34-24.566v-13.901l59.79 31.861v13.053l-59.79 32.259zM957.923 930.01l-59.785-32.259v-13.053l59.785-31.861v13.901l-47.408 24.566 47.408 24.779z"/><path d="M1233.12 968.485v-38.771c0-11.47-5.895-21.674-15.391-28.87-8.557-6.486-20.197-10.513-32.845-10.513h-8.078c-12.648 0-24.288 4.027-32.845 10.512-9.497 7.197-15.392 17.399-15.392 28.871v38.771h23.334V929.714c0-3.772 2.335-7.428 6.094-10.277 4.697-3.56 11.347-5.772 18.81-5.772h8.077c7.462 0 14.11 2.211 18.809 5.772 3.76 2.85 6.093 6.505 6.093 10.277v38.771h23.334z" style="fill:#616161;fill-rule:nonzero"/><path d="M1233.12 966.497v-.064h-23.334v.064h-57.883v-.064h-23.334v.064h-21.242c-6.443 0-11.667 5.224-11.667 11.667v82.848c0 6.443 5.224 11.667 11.667 11.667h147.036c6.443 0 11.666-5.224 11.666-11.667v-82.848c0-6.443-5.224-11.667-11.666-11.667h-21.243z" style="fill:#ff8f00;fill-rule:nonzero"/></g></svg>